<svg width="842" height="596" viewBox="0 0 842 596" fill="none" xmlns="http://www.w3.org/2000/svg">
<rect x="176" y="78" width="490" height="437" rx="20" fill="#7744E6"/>
<path d="M487 185.6C492.2 188 494.6 193.6 492.6 198.8L489.8 205.6C489 208.4 487 210.4 484.2 211.6C483 212 481.8 212.4 480.2 212.4C479 212.4 477.8 212 476.6 211.6C469.4 208.8 461.8 207.2 454.2 207.2C418.6 207.2 390.6 239.6 390.6 280.8V402C390.6 407.6 386.2 412 380.6 412H372.6C367 412 362.6 407.6 362.6 402V194.8C362.6 189.2 367 184.4 372.6 184.4H380.6C386.2 184.4 390.6 189.2 390.6 194.8V207.6C407.4 189.2 430.2 178.8 454.2 178.8C465.4 178.8 476.6 181.2 487 185.6Z" fill="white"/>
</svg>
